<?xml version="1.0" standalone="no"?>
<!DOCTYPE svg PUBLIC "-//W3C//DTD SVG 20010904//EN"
 "http://www.w3.org/TR/2001/REC-SVG-20010904/DTD/svg10.dtd">
<svg version="1.0" xmlns="http://www.w3.org/2000/svg"
 width="636.000000pt" height="636.000000pt" viewBox="0 0 636.000000 636.000000"
 preserveAspectRatio="xMidYMid meet">
<metadata>
Created by potrace 1.11, written by Peter Selinger 2001-2013
</metadata>
<g transform="translate(0.000000,636.000000) scale(0.100000,-0.100000)"
fill="#000000" stroke="none">
<path d="M2898 6155 c-3 -3 -22 -8 -41 -10 -57 -7 -130 -25 -142 -34 -13 -11
-108 -31 -145 -31 -17 0 -55 -17 -91 -40 -34 -22 -72 -40 -84 -40 -26 0 -80
26 -68 32 4 3 1 3 -7 0 -8 -2 -31 -8 -50 -12 -37 -7 -70 -22 -160 -69 -30 -16
-58 -27 -62 -24 -5 2 -8 0 -8 -4 0 -5 -9 -9 -19 -10 -11 -1 -39 -11 -63 -21
-31 -15 -45 -17 -50 -9 -4 7 -8 8 -8 2 0 -5 -5 -3 -11 5 -8 12 -9 10 -4 -9 5
-16 4 -21 -4 -17 -6 4 -11 2 -11 -4 0 -7 -7 -9 -16 -6 -8 3 -13 2 -10 -3 7
-11 -43 -33 -57 -25 -7 4 -9 4 -5 0 3 -4 -10 -22 -29 -39 -19 -18 -56 -64 -82
-102 -26 -39 -53 -69 -60 -67 -7 1 -10 -2 -7 -7 5 -8 -48 -63 -71 -72 -17 -8
-93 -107 -93 -123 0 -9 -7 -16 -15 -16 -8 0 -15 -7 -15 -16 0 -8 -4 -12 -10
-9 -6 3 -10 -4 -10 -16 0 -12 -3 -20 -6 -17 -11 11 -50 -37 -45 -56 3 -13 0
-17 -7 -12 -7 4 -12 1 -12 -8 0 -8 -4 -16 -8 -18 -9 -3 -82 -114 -82 -124 0
-4 -15 -32 -32 -63 -18 -31 -33 -62 -34 -69 -2 -8 -9 -21 -17 -30 -8 -10 -18
-28 -22 -42 -15 -51 -46 -100 -73 -115 -22 -13 -23 -15 -4 -10 28 8 28 4 -3
-29 -14 -15 -23 -32 -20 -37 4 -5 1 -9 -5 -9 -6 0 -9 -4 -6 -9 4 -5 1 -22 -5
-38 -16 -39 -19 -56 -24 -150 -2 -46 1 -85 6 -88 12 -8 0 -84 -19 -112 -8 -13
-19 -20 -26 -16 -6 4 -4 -2 4 -12 8 -10 10 -16 3 -12 -6 4 -14 3 -18 -3 -3 -5
0 -10 7 -10 8 0 9 -3 3 -8 -9 -6 -15 -31 -19 -72 0 -8 -4 -17 -8 -20 -4 -3 -8
-46 -9 -95 -2 -50 -8 -96 -14 -104 -7 -10 -7 -15 1 -18 9 -3 9 -15 -1 -46 -7
-23 -10 -54 -8 -69 3 -20 -1 -28 -11 -28 -12 0 -14 -5 -6 -26 7 -16 7 -23 0
-19 -6 3 -10 -1 -10 -9 0 -8 -5 -27 -12 -43 -6 -15 -11 -31 -10 -35 2 -8 -14
-12 -31 -9 -5 1 -6 -3 -2 -9 3 -6 12 -8 18 -4 7 3 4 -1 -5 -9 -13 -10 -14 -17
-6 -25 6 -6 7 -18 3 -29 -10 -23 -12 -29 -14 -49 0 -8 -6 -12 -11 -9 -7 4 -8
-3 -4 -21 4 -16 7 -33 6 -39 -2 -21 -8 -40 -15 -52 -5 -7 -4 -13 2 -13 6 0 8
-7 5 -15 -3 -8 -2 -20 2 -27 5 -7 10 -20 11 -28 11 -53 15 -71 27 -127 8 -33
13 -75 11 -92 -1 -17 1 -29 5 -26 4 3 10 -2 13 -9 3 -8 1 -17 -6 -20 -7 -2 -5
-5 4 -5 9 -1 19 -10 22 -22 4 -16 3 -18 -9 -8 -11 9 -14 7 -14 -9 0 -15 5 -20
15 -16 8 4 15 2 15 -4 0 -6 3 -19 6 -29 5 -15 4 -15 -5 -3 -7 9 -11 11 -11 3
0 -7 6 -16 14 -20 22 -13 46 -69 48 -112 1 -28 5 -38 15 -34 8 3 13 -3 13 -17
0 -23 66 -130 81 -130 5 0 9 -7 9 -16 0 -8 5 -12 10 -9 6 3 10 -1 10 -9 0 -9
3 -15 8 -14 15 3 42 -15 42 -28 0 -7 12 -19 27 -27 16 -7 27 -19 26 -25 -2 -7
6 -12 17 -12 11 0 20 -3 19 -8 -3 -20 15 -49 40 -63 25 -15 29 -24 34 -80 3
-35 9 -75 12 -89 3 -14 8 -50 10 -80 2 -30 6 -92 9 -137 14 -195 16 -302 6
-328 -7 -19 -7 -24 2 -19 8 5 9 0 5 -17 -4 -13 -7 -34 -7 -47 0 -13 -4 -21 -9
-17 -18 10 -23 -16 -6 -29 13 -9 15 -19 9 -37 -4 -13 -9 -35 -10 -49 -2 -36
-5 -38 -13 -10 -10 37 -34 36 -50 -2 -18 -43 -84 -132 -135 -184 -23 -22 -47
-52 -54 -65 -14 -26 -70 -66 -85 -61 -5 1 -6 -1 -3 -6 10 -17 -81 -50 -129
-47 -55 3 -149 -32 -253 -94 -57 -33 -107 -61 -112 -61 -5 0 -34 -27 -66 -59
-50 -52 -63 -60 -107 -65 -27 -4 -59 -14 -71 -22 -13 -8 -26 -11 -30 -7 -4 5
-7 3 -6 -2 5 -21 -1 -29 -10 -15 -8 13 -10 13 -10 -1 0 -22 -39 -71 -51 -64
-5 4 -9 2 -9 -4 0 -5 -15 -12 -33 -16 -17 -4 -42 -13 -54 -21 l-23 -14 0 -350
0 -350 2675 0 c2362 0 2675 2 2675 15 0 9 -8 14 -22 12 -16 -1 -23 3 -23 16 0
10 -9 26 -21 35 -11 9 -33 34 -48 54 -16 21 -31 37 -34 37 -4 -1 -9 -1 -12 1
-3 1 -15 3 -28 6 -12 2 -33 10 -45 18 -12 8 -42 20 -65 26 -33 8 -42 15 -38
27 4 8 1 22 -5 29 -6 8 -9 23 -6 35 9 32 -19 70 -103 143 -8 7 -27 16 -43 20
-15 3 -36 15 -46 25 -11 11 -22 17 -25 14 -3 -3 -12 0 -20 6 -29 24 -122 44
-211 45 -50 1 -97 6 -105 11 -18 12 -83 13 -91 2 -3 -4 -42 -7 -86 -5 l-81 3
14 30 c8 17 12 22 9 13 -2 -10 0 -18 5 -18 5 0 14 18 20 40 6 21 16 42 22 46
7 4 8 3 4 -4 -4 -7 -2 -12 3 -12 6 0 11 6 11 13 0 8 8 29 17 48 9 18 17 43 18
56 0 18 -2 20 -14 10 -12 -10 -13 -9 -3 10 17 30 32 38 33 16 0 -11 3 -13 6
-5 2 6 8 10 13 7 12 -7 7 98 -5 108 -5 4 4 7 20 6 47 -2 48 -1 25 31 -12 17
-23 42 -25 56 -1 15 -7 29 -12 33 -22 14 -39 91 -20 91 5 0 4 6 -2 14 -9 10
-9 20 -2 34 5 10 9 33 9 51 -1 18 3 36 8 39 5 4 9 13 9 21 0 8 6 16 13 18 7 3
12 -4 12 -16 0 -20 1 -20 18 -3 10 9 15 19 12 22 -3 3 -6 19 -6 35 1 17 -3 34
-9 38 -6 5 -1 7 12 4 15 -3 20 -1 16 9 -3 8 -1 14 5 14 5 0 8 11 7 25 -2 14 1
25 6 25 5 0 9 9 9 20 0 20 48 131 61 140 14 10 49 85 49 105 0 11 11 33 25 49
25 30 32 41 17 32 -5 -3 -6 8 -4 25 2 16 8 29 13 29 5 0 9 14 9 31 0 20 4 28
12 23 8 -5 9 -2 4 11 -6 17 17 80 35 95 4 3 10 16 14 30 4 14 15 30 24 36 12
10 13 15 3 27 -10 12 -8 17 11 30 16 10 28 12 36 6 8 -6 8 -5 1 3 -13 15 -40
19 -40 5 0 -5 -3 -8 -6 -5 -3 3 -1 14 5 25 10 18 50 142 56 176 2 9 7 22 10
27 4 6 9 39 12 73 3 34 10 65 17 69 8 6 8 8 -1 8 -6 0 -11 8 -11 18 1 20 -10
204 -17 282 -2 30 -9 114 -15 185 -6 72 -13 137 -16 146 -2 9 6 24 18 35 12
10 18 13 14 6 -7 -11 -4 -12 13 -3 11 7 21 14 21 17 0 3 -4 2 -10 -1 -18 -11
-11 14 8 25 16 11 16 11 0 6 -10 -3 -18 -1 -18 4 0 6 7 10 15 10 18 0 19 12 4
27 -7 7 -13 23 -14 37 -2 19 1 24 17 23 15 -1 18 -7 15 -24 -6 -32 21 -30 33
2 11 29 10 47 -5 58 -6 5 -4 12 6 20 19 15 20 77 1 77 -10 0 -10 5 -1 21 6 12
9 30 6 40 -3 10 -1 17 4 13 5 -3 10 1 11 8 0 7 2 18 3 23 2 6 3 16 4 23 0 6 5
12 10 12 9 0 -1 -58 -13 -79 -4 -6 -3 -11 2 -11 17 0 34 29 36 60 0 16 4 30 8
30 16 0 27 79 23 157 -4 68 -11 95 -43 165 -22 47 -38 98 -38 116 1 18 -2 32
-6 32 -4 0 -5 6 -2 13 4 12 10 46 13 86 1 10 11 12 39 8 25 -5 32 -3 22 3 -11
7 -8 10 15 10 17 0 41 3 55 7 22 6 24 5 11 -10 -18 -23 -6 -22 16 1 11 11 45
23 83 30 167 28 345 64 402 82 34 11 74 17 88 15 14 -3 19 -2 12 1 -15 7 4 18
75 47 63 25 147 82 182 124 20 24 26 28 15 11 -22 -37 -2 -37 34 -1 15 15 31
26 36 25 5 -2 6 7 3 18 -4 15 1 24 16 30 12 5 16 9 10 9 -7 1 -13 9 -13 19 0
14 2 15 10 2 9 -13 10 -13 10 0 1 8 3 40 6 70 7 67 7 63 -6 130 -6 30 -12 68
-15 83 -2 16 -9 35 -16 43 -6 8 -8 14 -5 14 4 0 1 12 -7 28 -8 15 -34 68 -58
117 -45 95 -118 203 -181 270 -21 22 -36 46 -33 53 3 7 1 11 -4 8 -5 -3 -29
13 -54 37 -85 79 -119 107 -127 107 -5 0 -14 8 -19 18 -6 9 -11 14 -11 9 0 -4
-17 3 -37 16 -66 41 -154 77 -199 84 -24 3 -44 8 -44 12 0 7 -32 9 -155 10
-75 1 -258 -17 -405 -39 -127 -19 -155 -23 -182 -22 -16 1 -28 -3 -28 -9 0 -6
-5 -7 -11 -4 -15 10 -69 13 -69 4 0 -4 -8 -9 -19 -12 -12 -3 -26 5 -42 24 -13
16 -29 29 -36 29 -14 0 -144 98 -156 117 -4 7 -14 13 -22 13 -7 0 -20 6 -27
13 -7 6 -39 30 -72 52 -32 22 -61 45 -63 52 -2 6 -14 14 -26 17 -13 3 -31 13
-42 23 -31 28 -94 51 -159 58 -33 3 -65 10 -70 15 -10 8 -67 16 -166 24 -19 2
-75 9 -125 15 -49 7 -97 12 -105 12 -48 -1 -129 12 -124 20 3 5 1 9 -5 9 -5 0
-11 -5 -13 -10 -2 -7 -15 -7 -38 0 -37 11 -133 14 -142 5z m2022 -2495 c0 -5
-5 -10 -11 -10 -5 0 -7 5 -4 10 3 6 8 10 11 10 2 0 4 -4 4 -10z m-58 -198 c-6
-2 -8 -11 -5 -20 4 -14 3 -14 -5 -3 -7 10 -6 20 1 33 8 12 13 14 16 6 2 -7 -1
-14 -7 -16z m-3594 -1979 c-5 -21 -12 -40 -15 -43 -6 -6 7 61 14 73 10 17 11
4 1 -30z m3090 -491 c6 -18 -15 -14 -22 4 -4 10 -1 14 6 12 6 -2 14 -10 16
-16z m17 -32 c3 -5 -3 -10 -14 -10 -12 0 -21 5 -21 10 0 6 6 10 14 10 8 0 18
-4 21 -10z"/>
<path d="M5870 4495 c-7 -9 -11 -18 -8 -20 3 -3 11 1 18 10 7 9 11 18 8 20 -3
3 -11 -1 -18 -10z"/>
<path d="M5065 4230 c-4 -7 3 -8 22 -4 38 9 42 14 10 14 -14 0 -29 -5 -32 -10z"/>
<path d="M4835 3249 c-4 -6 -5 -12 -2 -15 2 -3 7 2 10 11 7 17 1 20 -8 4z"/>
<path d="M881 2924 c0 -11 3 -14 6 -6 3 7 2 16 -1 19 -3 4 -6 -2 -5 -13z"/>
<path d="M4576 1771 c-4 -7 -5 -15 -2 -18 9 -9 19 4 14 18 -4 11 -6 11 -12 0z"/>
<path d="M1283 1586 c4 -9 2 -16 -3 -16 -6 0 -10 -5 -10 -10 0 -6 8 -5 20 2
22 14 22 29 0 36 -9 3 -11 -1 -7 -12z"/>
<path d="M130 795 c-7 -8 -16 -12 -21 -9 -5 3 -9 1 -9 -4 0 -22 28 -19 39 4
12 27 9 31 -9 9z"/>
<path d="M5011 294 c0 -11 3 -14 6 -6 3 7 2 16 -1 19 -3 4 -6 -2 -5 -13z"/>
</g>
</svg>
